<svg height="282.842712" viewBox="0 0 18.581462 14.689674" width="353.553391" xmlns="http://www.w3.org/2000/svg"><g transform="translate(-154.746348 -197.509388)"><g fill="#00abf0"><path d="m155.44087 205.68508v1.25539h.22876c.31557 0 .52916-.22048.52916-.61874v-.0152c0-.39825-.21359-.62149-.52916-.62149zm-.41616-.37483h.64768c.58152 0 .95635.40101.95635.98805v.0262c0 .58705-.37483.99081-.95635.99081h-.64768zm0 0"/><path d="m156.84923 205.31025h1.29122v.37621h-.87919v.43132h.77308v.37483h-.77308v.44786h.89159v.37483h-1.30362zm0 0"/><path d="m158.22038 205.31025h.45062l.42305 1.3808.42444-1.3808h.43822l-.67662 2.01607h-.3831zm0 0"/><path d="m160.10002 205.31025h1.29122v.37621h-.87918v.43132h.77307v.37483h-.77307v.44786h.89021v.37483h-1.30225zm0 0"/><path d="m161.62275 205.31025h.41617v1.62333h.81029v.38172h-1.22646zm0 0"/><path d="m164.22862 206.32449v-.0207c0-.39412-.19981-.64354-.47818-.64354-.27974 0-.47818.24667-.47818.64079v.0207c0 .3955.20395.64492.48232.64492.27698 0 .47404-.24666.47404-.64216m-1.38217.008v-.0345c0-.60082.37758-1.0225.90813-1.0225.53192 0 .90399.41893.90399 1.01699v.0345c0 .59807-.37758 1.0225-.90813 1.0225-.53192 0-.90399-.41892-.90399-1.01699"/><path d="m165.52949 206.33276c.21498 0 .33486-.13505.33486-.32109v-.003c0-.20808-.11988-.32384-.34037-.32384h-.22738v.64768zm-.64768-1.02251h.66697c.45062 0 .73312.26045.73312.68764v.005c0 .46165-.32935.69316-.74965.70143h-.23565v.61047h-.41479zm0 0"/><path d="m166.44864 205.31025h.43546l.44649.81304.44097-.81304h.43822v2.00505h-.40653v-1.2802l-.47266.8282h-.008l-.46991-.82269v1.27469h-.40376zm0 0"/><path d="m168.50468 205.31025h1.2926v.37621h-.88057v.43132h.77308v.37483h-.77308v.44786h.89159v.37483h-1.30362zm0 0"/><path d="m170.02879 205.31025h.38033l.76757 1.16858v-1.16858h.40652v2.00505h-.35415l-.79375-1.2113v1.2113h-.40652zm0 0"/><path d="m172.26259 205.69472h-.50437v-.38447h1.42076v.38447h-.50436v1.62058h-.41203zm0 0"/><path d="m154.87864 204.36492.27009-.33624c.14745.12815.32659.24804.54708.24804.17639 0 .2825-.0882.2825-.21635v-.003c0-.11025-.0634-.17915-.37758-.29904-.38861-.1502-.63115-.29765-.63115-.67524v-.006c0-.38448.29628-.64492.71934-.64492.25769 0 .50987.0882.71107.27009l-.25494.34589c-.13918-.113-.29903-.20395-.46853-.20395-.1571 0-.25356.0786-.25356.19155v.003c0 .1254.0744.18604.41754.32659.3831.15159.5898.3142.5898.65595v.007c0 .4079-.31005.66008-.73725.66008-.27974 0-.57188-.0978-.81441-.32384"/><path d="m156.62185 203.80543v-1.34359h.45613v1.34773c0 .31005.14745.4644.3831.4644.23564 0 .38309-.15159.38309-.45614v-1.35599h.452v1.33395c0 .60633-.33349.89848-.84198.89848-.50574 0-.83234-.2949-.83234-.88884"/><path d="m158.43122 204.36492.27009-.33624c.14745.12815.3266.24804.54708.24804.17501 0 .2825-.0882.2825-.21635v-.003c0-.11025-.0634-.17915-.37758-.29904-.38861-.1502-.63114-.29765-.63114-.67524v-.006c0-.38448.2949-.64492.71933-.64492.25769 0 .5085.0882.70969.27009l-.25493.34589c-.13781-.113-.29766-.20395-.46716-.20395-.1571 0-.25494.0786-.25494.19155v.003c0 .1254.0758.18604.41755.32659.38447.15159.59118.3142.59118.65595v.007c0 .4079-.31144.66008-.73863.66008-.27974 0-.57189-.0978-.81304-.32384"/><path d="m160.57682 202.88215h-.55397v-.42031h1.55856v.42031h-.55259v1.77767h-.452zm0 0"/><path d="m162.6177 203.78063-.23841-.71658-.24253.71658zm-.44924-1.33119h.43408l.78823 2.21038h-.47129l-.16398-.4768h-.75654l-.15986.4768h-.45888zm0 0"/><path d="m163.56303 202.46184h.45475v2.19798h-.45475zm0 0"/><path d="m164.35816 202.46184h.41754l.84061 1.28158v-1.28158h.44648v2.19798h-.3886l-.87092-1.32843v1.32843h-.44511zm0 0"/><path d="m167.45737 203.78063-.23841-.71658-.24253.71658zm-.44924-1.33119h.43408l.78824 2.21038h-.47129l-.16399-.4768h-.75654l-.15986.4768h-.45888zm0 0"/><path d="m169.22815 203.74342h-.39826v.51401h.4079c.20533 0 .33349-.0868.33349-.25631v-.004c0-.1571-.11576-.25356-.34313-.25356m.24942-.63528c0-.15985-.113-.24391-.30868-.24391h-.339v.49609h.31695c.20119 0 .33073-.0827.33073-.24942zm-1.09003-.6463h.8158c.24529 0 .44924.0661.57464.19155.0978.1006.14883.21911.14883.37345v.01c0 .25769-.14194.3955-.29903.48094.23564.091.39274.23564.39274.52365v.0165c0 .3955-.31695.6022-.79513.6022h-.83785zm0 0"/><path d="m170.23411 202.46184h.45476v1.78043h.88883v.41755h-1.34359zm0 0"/><path d="m171.76649 202.46184h1.41662v.41066h-.96462v.47542h.84887v.41066h-.84887v.49058h.97703v.41066h-1.42903zm0 0"/></g><path d="m164.01778 200.41822.0124.0193c0 .0703.008.14194 0 .21085.0634-.0207.13642-.0179.20532-.0289-.0138-.006-.0275-.008-.0386-.0221-.04-.003-.0579-.0441-.0717-.0758-.005-.0234.01-.0427.0193-.062-.0179-.0344-.0703-.01-.1006-.0221-.008-.007-.0152-.0165-.0262-.0193m-.97703-.0593-.001.011-.17639.17639c.26596.23013.56775.37896.91088.42581.0551.01.11714.004.1695.0207l-.0124-.0207v-.23151l.008-.0124-.0262.007c-.33348-.0234-.62838-.14056-.87229-.3762m1.89756.003-.004-.0207c-.0234.0469-.0772.0772-.11714.113-.0565.0551-.14607.0675-.175.14745-.0289.0275-.04.0703-.0813.0854-.0152.0413-.0593.0386-.0841.0689-.0717.0634-.11713-.0413-.1819-.0537l-.13091.022c-.0455 0-.091.0166-.13368.003.006.0868.006.18052 0 .26734l.0165-.01c.41203-.0179.76619-.17501 1.07211-.45062zm-1.57924-.15985c.006.0207.0331.0331.0248.0592-.0138.0221-.0441.0234-.0675.0221-.0496-.007-.0854.0303-.13091.0345-.0427.0138-.0565-.0386-.0951-.0345.23702.20809.5085.33762.82683.35554l.0234.0152-.01-.0289v-.22462l-.0207.008c-.20808-.011-.38998-.0868-.55121-.2067m-.006-.007c-.011-.007-.0179-.0138-.0207-.0262zm-.0275-.0372-.003-.005.003.01zm1.3739-.0317-.005-.0165c-.008.0207-.0234.0331-.0386.0482 0 .0138-.004.0345.011.0441.0345.011.0785.0331.0868.073-.0138.0386-.0854.0717-.0413.113.0152.0207-.0193.0289-.0138.0455l.011-.0165c.051-.04.10749-.0772.15297-.12678h.005c-.01-.004-.0234.007-.0344.001-.0248-.011-.0289-.0331-.0289-.0579zm-1.18649-.2384c-.051.0606-.11024.1254-.17087.17364.0276.001.0413.0317.0634.0441.12815.10611.28801.1571.43683.19431l-.0413-.0179c-.0303-.0358-.0744-.0772-.0758-.1254.0317-.01.0275-.0441.0386-.0675.0248-.0275.0551-.0413.0896-.0496-.0868.0358-.16261-.0275-.23427-.062-.0358-.0262-.0841-.0482-.10611-.0896m.82407-.0248c-.0262 0-.04.0207-.0592.0372-.0248.0138-.0358-.0262-.0565-.0165.001.004.006.007.01.008.004.005.007.0179 0 .0248-.0303.0262-.0427-.0124-.0703-.011v.011c0 .005-.003.0152-.011.0124-.0165-.0289-.0524-.0193-.0689-.0427-.011-.007-.0207.001-.0289.008-.005.0124-.0331-.003-.0262.0207-.0221.007-.0234.0303-.04.0441-.0262-.004-.0386.0248-.0634.0248.003.006 0 .0138.008.0138.0152.007.0303.01.0496.007.0262-.0413.0689-.007.10335-.0234.0234.004.008.0289.0234.0372.0358-.011.062.0303.0896.004-.001-.04.0441-.0372.0689-.0469.0386-.0234.0813-.0537.0772-.10473zm-.0965-.0634c-.003.007-.0124.0179 0 .0234.0207-.0221.0634-.0207.0661-.0524-.0303-.004-.0455.0124-.0661.0289m-.4961-.15021c-.0372.0606-.10748.11438-.15847.17088.0923.0744.1943.12127.3073.14194.007-.0234-.003-.0524.01-.0717.008-.0193.0303-.0179.0482-.0152.01-.001.0165-.0138.01-.0221-.0248-.006-.0138-.0331-.0221-.0482.001-.008.0152-.007.0124-.0179-.0179-.0138.008-.0289-.006-.0427.006-.004.01-.0138.0179-.0138-.0538.0275-.11162-.007-.15985-.0276-.022-.0124-.0537-.0262-.0593-.0537m1.07625 0c-.0248-.001-.0551.0138-.0758-.004-.008-.007-.0138.004-.0124.011-.008.0124-.0166.0289-.0358.0234-.0165-.007-.0165-.0234-.0207-.0358 0 .01-.003.0179-.006.0262-.0165.0193-.0234.0372-.0358.0579-.0179.0193-.0469.0124-.0661.0289-.003.0413-.0482.0317-.0744.0455-.001.004.004.005.007.01.0124.004.0289.004.0372-.008.0358.01.0275-.0358.0482-.051.0179-.003.0358-.0179.0538-.007.0193.0234.0234.0565.0207.0868-.0207.0207-.01.0537-.0248.0772.004.0289-.0303.0413-.0262.0703-.011.0124-.0303.0138-.0468.0138-.0675-.0248-.13918-.0413-.2136-.0482-.007.003-.011.008-.011.0165.0317.0152.0689.0165.10197.0303.0289.007.0482.0441.0841.0317.0317-.0166.0827.011.10335-.0207-.004-.0331.0234-.0551.0372-.0827l.011-.003c.0165.0179.0165.0441.0234.0634.0234-.0248.0427-.0524.0648-.0799.0551-.0813.10335-.1695.12403-.26321-.0234 0-.0455.004-.0675.011m-.48369-.001c.001.0124.003.0303.0138.0413.0331-.006.0193.0413.0496.0372.0166-.006.001-.0207.006-.0317-.004-.0248-.0289-.0276-.0469-.0427-.001-.006.001-.01.004-.0138-.0124-.007-.0179 0-.0262.01m-.67524-.0703c-.006.022-.0193.04-.0344.0551l.003.003c.0207-.0152.0345-.0413.0606-.0427zm-.26734-.0675c.0234.0455.0358.0951.0606.13919.0152.04.0496.0703.0648.10886.0165-.0303.0496-.0551.073-.0841.001-.0124-.001-.0234-.008-.0331-.008-.0179-.001-.0427-.0152-.0592-.0221.008.008.0303-.001.0427-.01.007-.0193-.001-.0207-.01-.0193-.004-.0344-.0207-.0413-.0386.0165-.01-.004-.0138-.008-.0234-.008-.004-.01-.003-.0165.004-.004 0-.008.001-.0124-.001 0-.0482-.0537-.0193-.0744-.0455m-.4396-.10473-.0193.008c-.0786-.001-.16261.006-.23703-.005l.011.0138.0179.15848c.008.0606.0344.1185.0331.17776.01-.0124.003-.0386.0262-.0413-.01-.0179.0179-.0345.003-.051.007-.0413.0124-.0827.0482-.113.0441-.001.0469-.0579.091-.0606.022-.001.0358.0289.0455.0386-.0275-.0331-.0262-.0882-.0193-.12541m-.33349 0-.0234.008-.2384-.001c.0138.27285.0868.52227.20946.74965.0606.113.15021.21498.22738.3197l.17087-.17638.0207-.008c-.0289-.0207-.0551-.0537-.0799-.0813-.0289-.008-.0579-.0276-.0717-.0551-.008-.01-.001-.0262-.011-.0331l-.01.0124c-.0303.0152-.0413-.0152-.062-.0289-.0262-.0138-.0138-.0648-.0496-.0551-.0124-.001-.0179-.0165-.0262-.0248-.033.003-.0413-.0331-.0592-.051-.004.007 0 .0179-.011.0234-.0331.007-.0455-.0345-.0689-.0524-.006.003-.01.01-.0193.008-.0193-.0179-.0331-.0441-.0344-.0717-.0276-.0317-.0152-.0827-.01-.12127.004-.01.0193-.0166.0165-.0289.008-.0179.0262-.0193.0441-.0207.007.004.0138.011.0179.0165.011-.007.0358.001.0262-.0234.0138-.0124.0358-.0179.0551-.0207.0138.0165.0207.0372.0386.0524l-.0124-.0179c-.0207-.0841-.0358-.1695-.04-.26045 0-.004-.0124-.007-.004-.0124l.001.003c0-.0193-.001-.0358.003-.0482m.41065-.003.0138.0193c.001.0565.0234.11161.011.16812.01-.0165.0124-.0386.033-.0482.003-.0165-.0207-.0193-.0179-.0358.0165-.0317.001-.0827.0427-.0965-.0303.006-.0565.011-.0827-.007m1.99402-.003c.005.0524-.008.10197-.0124.15296l.0289.0317c.007.011.004.0289-.007.0386-.0124.008-.0275.007-.0386-.003-.0358.11437-.0786.22737-.1502.32659-.0275.0358-.0551.0854-.0923.10473l.0785.0675c.004-.004.001-.011.001-.0165 0-.01.005-.0221.0193-.0207.0372-.001.0372.04.0592.0606-.004.0317.0234.0579.0152.0868.21497-.226.32246-.50574.34176-.81305l.0124-.0138c-.0772.007-.15848.001-.2384.003zm.34313.006-.0152-.01.008.0221c-.0138.28525-.10886.53606-.27009.7593-.0317.0372-.062.0841-.10198.11024.0648.051.13781.12816.19155.18742l.007-.0138c.26045-.29765.40928-.64354.42581-1.04317l.01-.0207-.0124.007zm-.58567-.0124.0276.0275c.0262.0179.008.0565.0358.0717.0344.0165.0455.0551.0606.0841.004-.008.004-.0165.007-.0248.0124-.0469.011-.0992.0248-.14607-.051.003-.11024.008-.15572-.0124m.0537-.0841c-.007.004-.0165.001-.0248.003.007-.004.0165-.003.0248-.003m-1.5999-.0289c-.0689.0234.011.0758-.006.11713-.01.0248-.0344.003-.0524.0124l-.008.0455c-.01.0262-.0427.007-.0579.0248-.011.0165 0 .0345.01.0482-.0234.0551.0537.0717.0537.12126.0234.0317-.004.0758.0303.10336.007.0551-.008.13091.04.17363l.01.0537c.01.0358-.0441.0276-.0372.0593.011-.005.0124.008.0138.0124v-.001c.0661-.0772.14194-.1571.21911-.22462l-.0317-.033c-.0606-.0896-.10887-.18604-.1323-.29215l-.0248-.0124c0 .0262-.0124.0482-.011.0758l-.01.01c-.0165-.001-.0289-.0152-.0441-.0248-.003-.01-.0124-.0248.003-.0317.008-.001.0138.001.0207.006.007-.01.004-.0234.008-.0344.001-.0207-.0165-.04-.003-.0579.0152-.001.0276.0179.0345.0289.0165.005.0289-.008.0427-.0138 0-.0152.0207-.0344-.001-.0427.0124-.0345.004-.0689-.001-.10198-.01-.0276-.0413-.0221-.0648-.0207m.74276-.21084c-.0138-.0152-.0441-.005-.062 0 .0179.0179.011.0482.0207.0703-.0248.0427-.0675.051-.10749.0634-.0124.0138-.01.0441-.0358.0413-.008.0193-.0372.0303-.0262.0565-.0138.0303-.007.0675-.0152.0992-.0496.0317-.0358-.0427-.0606-.0579l-.01.0152c-.01.003-.0165-.004-.0234-.011-.007-.003-.0207-.004-.0276.001-.011.0193-.0276.0345-.0234.0606-.005.0152-.0303.01-.0275.0262.0289 0 .0593-.005.0868-.0124.0193.005.0358-.008.0551-.01.007.004.0152.01.0124.0207h.007c.0138-.011.0193-.0262.0138-.0413.001-.0179.0207-.0179.0331-.0234.011.006.004.0165.006.0248.0386.0152-.01.0427-.0138.0634-.011.0165 0 .0537-.0331.0482-.006-.001-.01-.008-.008-.0138h-.004c-.001.0138.008.0317.0221.0372.0248-.0193.0248-.0524.0593-.0565.0179-.0193-.007-.0482.0193-.0634.0441-.001.0923-.0193.12677.0165-.003.0152-.008.0221.004.0345-.008.0193-.0138.0413-.0303.0579.004.011 0 .0248-.008.0317-.0124.0524-.0717.0275-.10748.0455.0537.0413.11851.0565.18878.051.0372-.001.0207-.0469.04-.0675.0124-.0593.0661-.0179.0992-.0344.0138-.0262.0262-.051.0289-.0799-.0207-.0138-.0289-.0386-.0221-.0634-.0152-.0207-.0138-.0565-.0455-.0592-.004-.007 0-.0152.004-.0207-.001-.0193.0179-.0248.0234-.04-.0207-.0124-.0152-.04-.0138-.0565-.0331.01-.0358-.0345-.0606-.0441-.006-.0193-.0275-.022-.0441-.0262-.0413.0193-.0482-.0303-.0799-.0427-.003-.01-.01-.0234 0-.0303.0165-.0124.0358-.001.0537-.003zm-.41479-.14194h.0193c.0207.0207.0537.0166.0689.0441.008.0152-.0138.0138-.0138.0262.004.004.011.005.0138.011.0166.006.0124-.01.0193-.0165.0207-.022.0248.0207.0441.0207.0152-.01.0358-.01.0469.005.0124-.011.0413 0 .0469-.0234.0262-.0276.011-.0717.051-.0896.0138.008-.001.0207.004.0331.0262.011.0565-.0221.0772.004-.0193-.0551-.0138-.12402-.0124-.18604-.1378.0179-.26458.0648-.36518.17088m.46027-.17777c.0165.0482.001.12127.0124.17639l.0606.0207c.0179-.0303.0579-.0358.0744-.0634.011-.01.0234 0 .0331.01.003.0234-.004.0455-.011.0689-.0234.0455-.0772.051-.10749.0854.0193.011.0303-.01.0469-.0138.0234.003.0427.0234.0565.0386.0152.007.0303-.003.0441-.008.01-.0703.0978-.0606.12403-.12678l-.0165.006c-.006-.01-.0234-.006-.022-.0207.0138-.0138.0331-.0345.051-.0413-.0772-.0469-.15709-.0882-.24391-.11024-.0345-.008-.0689-.008-.10198-.0207m-.73862-.0289c-.11714.14193-.19844.29765-.23014.47404-.008.0413-.004.0896-.0207.12678.0303-.0138.0744-.008.10749-.004-.0193-.01-.003-.0344-.0152-.0482-.001-.0221-.006-.0482.0152-.062-.003-.0344.0358-.0524.0386-.0841.01-.0358.0496-.0124.0703-.0303.0124-.007.001-.0193.001-.0289.0165-.0234.0441-.0221.0634-.0344.0152-.022.0345-.0469.0579-.0606.051.001.0524-.0703.1006-.0717-.0661-.0496-.12954-.11714-.18879-.17639m1.39044-.008-.004.011c-.0786.0813-.16536.16674-.23978.24942.004.011.0138.0207.0221.0248.004-.0207.0152-.0386.0165-.0593.0207-.0289.051-.011.0772-.004.0413-.01.0799.01.12126.008.0317.0152.0344.0551.062.0703.008.011.003.0234-.008.0317.008.0648.04-.0165.0717-.001.0138.006.0303.004.0413.0179.005.0262.0372.0221.0386.0469-.003.0138-.0152.0165-.0248.0234.008.0262-.0262.0413-.0138.0689.0496.01.051-.0469.0744-.073-.0124-.0441-.0221-.0896-.0482-.12954-.0289-.005-.0455-.0386-.073-.0455-.0551-.0207.008-.0551.001-.0868-.0289-.0551-.0758-.10335-.11438-.15296m-1.63435-.23703-.003.0165-.0909.11713c-.15159.20671-.22324.44786-.24529.70831l.23426-.004.022.008c-.01-.006-.005-.0152-.01-.0248.0193-.24254.10335-.46027.27285-.64079-.0648-.0565-.12678-.11713-.18052-.18052m.97978-.0648.008.0193-.001.23151.0221-.004c.14194.0193.27147.0648.38309.1571l.007.0179c.0386-.0551.0965-.1006.14194-.15159l.0427-.0248-.0207-.01c-.0951-.0772-.19706-.1378-.3073-.17777-.0868-.0303-.1819-.0427-.27561-.0579m-.0896-.001-.0152.008c-.21635.0165-.40376.10611-.56913.24253.0648.0455.12265.11714.1819.1695.004-.006.008-.011.0124-.0193.0813-.0579.16537-.11025.26045-.13505.0427-.003.0854-.0234.12953-.0138-.01-.0799-.01-.1695 0-.25219m-1.1231-.17776c-.24391.27009-.39412.57877-.43821.93155-.01.0524-.003.10473-.0138.1571.0854-.007.17915-.007.26459 0l-.006-.0331c.0152-.27285.10335-.51538.25494-.73173.0386-.0441.0675-.0992.11576-.13092-.0565-.0524-.11438-.113-.17226-.17088zm2.34956-.007c-.0482.0634-.11162.12264-.17088.18328l-.0289.006c.0179.004.0234.0262.0345.0386.0634.0331.0799.10059.13367.1378.0317.0648.10198.113.10473.18741.0744.16399.12402.33762.12954.53055l-.007.01c.008 0 .0152-.003.0207-.008l.24667-.003c-.0165-.0248-.01-.0592-.0138-.0882-.0331-.38034-.19568-.70693-.44924-.99357m-1.89894.0786c-.0524.0358-.10197.0841-.15572.11713.062.04.11438.10611.17226.15986l.005.0152c.14608-.13918.32246-.22049.51263-.25908.0455-.004.091-.0193.13505-.011-.003-.0813-.011-.16537-.001-.24529-.24805.0138-.46992.0896-.66835.22324m1.53376-.23013c-.0179.0165-.0345-.0152-.0496.004-.001.01 0 .0179.006.0248.0358.0124.04.0648.0868.0524.0138-.0152-.008-.0303-.004-.051-.007-.0179-.0221-.0248-.0386-.0303m-.77308-.001.008.0152c-.001.0799.003.16399-.004.2384.0331-.011.0661.003.0978.004.16812.0276.32522.0813.46026.18466-.0165-.0179-.0358-.0372-.04-.062.003-.003.006-.004.01-.003.003-.0275-.0248-.04-.0303-.0648.006-.006.011-.01.0193-.007.0289.0275.0537.0565.0758.0882.0179-.008.0331.003.0468.0138.0248.0152.01.0455.0289.0634.003.051.0648.0785.0606.12953.001.011.0152.001.0207.008l.051.0634c-.01.011-.001.0262.008.0345.0234.01.0372-.0193.0593-.0152.0345.0193-.004.0413-.001.062.0124.001.0289-.01.04.003.004.0193-.0152.0303-.0234.0427 0 .0193.0152.0152.0289.0193.0152-.001.0248.0179.0207.0303.0427.0441-.0124.0923.007.13918.0138.0303-.003.0606-.0221.0841.001.0372-.0331.0606-.0469.0923l-.0427.008c-.0234.0234.0193.051-.004.0648l.0965.003-.011-.011c-.0138-.0372-.01-.0868.0124-.12127.0152-.0303.0179-.0675.0455-.0937.007-.001.0179-.0124.0221 0 .003.0289 0 .062-.0138.0882.0275.04.0234.091.0262.13918.0841-.006.16812-.007.25081-.006l-.008-.0165c-.0124-.15848-.0455-.3073-.11024-.44235-.0193 0-.0317.0152-.0524.01-.007-.001-.011-.01-.01-.0165-.0345-.0331-.0551-.0758-.0937-.10474-.0441.004-.0634-.0455-.10335-.051-.0344-.0138-.011-.0703-.0606-.0551-.0248-.011-.0496-.0289-.0538-.0579 0-.0441-.008-.0923-.0496-.12127-.0303-.011-.0427.0303-.0744.0234-.0165-.008-.008-.0303-.0138-.0455-.007-.0124-.0207-.0221-.0179-.0386.04-.0538-.0496-.0524-.0289-.10473-.006-.0372-.0441-.0524-.0634-.0827-.13229-.0592-.26458-.10059-.41478-.11851-.0358-.006-.0703.003-.10198-.0138m.19844-.21084-.12265.0524c-.01-.004-.0303-.01-.0372.004-.006.004 0 .01.003.0152.0441.0579.12264.0248.17914.0138.0413.0179.0813-.003.11162-.0289v-.006c-.0289-.0413-.0841-.0468-.13367-.051m-.29214-.12953c-.34451.0138-.64905.13091-.92053.32521-.051.0358-.0978.091-.15021.12127h.007c.0675.0496.13229.12127.1888.1819l.004-.011c.25081-.22738.54019-.35278.87368-.36794l-.008-.0207-.003-.20533zm.0951-.008c.01.0675.008.15986.003.23565 0-.008.003-.0152.007-.0207.0124-.007.022.003.0275.0124.001.011.007.0317-.004.0386.011.001.0152-.006.0248-.006.19568.0138.37759.0717.53882.16399v-.004c.0344-.0165.0772-.0386.11024-.01.0413-.0152.0496.0358.0827.0413.04.0248.0854.0689.0909.11575.007.0152.0303.0262.0345.0427.0275-.0579.0813-.0992.12953-.14883l.0289-.0124c-.25907-.24667-.56499-.38172-.90675-.42858-.0551-.01-.11438-.004-.16674-.0207m1.50482.89159c.17776.34175.22875.81442.113 1.20165-.11714.45613-.50161.91915-.94809 1.10656-.50437.24667-1.22095.18604-1.67019-.13642-.62425-.42857-.88056-1.16582-.69177-1.89342.11575-.43271.45888-.86817.88056-1.06936.23702-.11713.4961-.17915.77722-.18466.64492.001 1.25953.37896 1.53927.97565" fill="#478ac7"/><path d="m165.58875 197.96255c.1254.11162.1819.2577.21773.4079l.0207.0469c-.1819-.13091-.34589-.30592-.46302-.49196l-.14056-.14331c.12402.0524.25769.0854.36518.18052" fill="#478ac7"/><path d="m162.41237 198.18579c-.0841.10336-.19155.17088-.28526.26045.051-.10611.0524-.23288.12541-.32935.10335-.18052.2949-.24391.46577-.31006-.12678.10887-.21359.24943-.30592.37896" fill="#478ac7"/><path d="m166.03247 198.37459c.04.17914-.0179.35415.0193.53467l-.003.003c-.0965-.19293-.30455-.2825-.44649-.43684-.0827-.0909-.11851-.20257-.13918-.31971.0813.19706.30179.23978.42857.40653.0427.0372.0565.0909.0841.13366l.004-.004c-.073-.15434-.0978-.32935-.14883-.4961-.0248-.0717-.0758-.14193-.14332-.18741.16675.0345.31006.20671.34451.36656" fill="#478ac7"/><path d="m162.25665 198.03834c-.1695.11576-.15847.32522-.21222.49885-.0165.0634-.0469.12265-.062.18879l.006.003c.0275-.0744.0772-.1447.13918-.20533.11989-.11024.29766-.17914.35692-.34451-.003.22876-.19293.4079-.37483.53606-.0758.0661-.14883.14056-.18879.226-.004-.0579.008-.11576.004-.17777-.0207-.19844-.0344-.42581.10611-.57327.0606-.0758.13918-.12953.226-.15158" fill="#478ac7"/><path d="m166.13996 198.41317c.15021.20533.18466.53192.073.76757-.04.0992-.0689.20532-.0854.31557-.008-.0193-.01-.0455-.0165-.0661-.0592-.23013-.27698-.39412-.36655-.61047-.0289-.0717-.0524-.14469-.0661-.22186.0951.17639.33073.26871.3955.46302.0262.0496.0248.11162.0413.16398.003 0 .007-.001.007-.005-.0289-.20119-.0207-.41065.007-.60909-.001-.10749-.011-.21222-.0717-.2949.0386.0221.0551.0648.0827.0978" fill="#478ac7"/><path d="m161.8956 198.34978c-.13091.19706-.0234.44511-.0289.66973l-.0165.23013c.003.003.003.008.008.007.008-.0262.01-.0538.0138-.0799.0317-.18603.19155-.31695.33349-.4451.0289-.0331.0565-.0675.0717-.10749-.011.0923-.04.18603-.0785.27147-.11025.2136-.31282.38861-.34865.63252-.0179-.23289-.17776-.40928-.16123-.65732-.005-.2012.0786-.36656.19568-.51677.004-.001.007-.006.011-.004" fill="#478ac7"/><path d="m166.2819 199.74435c-.0896.12678-.19844.24529-.28112.37483.008-.10197.0207-.22875-.0193-.32659-.0689-.20809-.12953-.42168-.1502-.65044l.003-.0882c.0524.23426.28388.39549.26872.6587.005.0648-.0138.11851-.0262.17501l.004.004.01-.0124c.0344-.12954.051-.26458.10472-.38447.0758-.17363.1695-.34864.13092-.55811.11575.24667.0813.57602-.0441.80753" fill="#478ac7"/><path d="m161.82946 199.66167c.0248.0868.0303.17915.0648.26045.004.003.007-.001.01-.004-.0882-.24667.0386-.47405.16537-.6656.0303-.0524.0496-.11162.0648-.17088.0138.11163-.0152.23978-.0317.35416-.0303.14745-.0772.28663-.11713.42995-.0262.0882-.0193.18879-.005.2825l-.0124-.011c-.0937-.17087-.27836-.30593-.3321-.49334-.0455-.14882-.0758-.32246-.0455-.48644.0152-.0634.0262-.12816.0537-.18604-.0524.26734.12678.45889.18604.6904" fill="#478ac7"/><path d="m165.92912 200.14812c-.007.11576-.0441.21773-.10473.31006h.01c.0827-.10749.14608-.22187.24254-.32522.14883-.14332.29903-.29077.3197-.4892.0496.33211-.13642.62425-.41203.81166-.11438.0744-.22875.14332-.339.22738v-.01c.16812-.27836.0854-.66007.18879-.966l.0386-.10197c-.0207.19016.062.35139.0565.54294" fill="#478ac7"/><path d="m162.25941 200.5257c.0179.0634.0551.11989.0786.18052-.25356-.17363-.60083-.33899-.71383-.65594-.0482-.11024-.0524-.24529-.0427-.37207.0207.28388.32522.4327.46578.66697.0331.0482.062.1006.10749.14056-.008-.0289-.0358-.0551-.0455-.0854-.0496-.0978-.0675-.21497-.0565-.33486.0138-.14332.0744-.27837.051-.42995.1254.26734.0868.60082.15572.89021" fill="#478ac7"/><path d="m165.54878 200.73654c-.0427.0758-.1061.15021-.17363.20946.0221-.001.0413-.0207.0606-.0331.18465-.18328.42305-.23427.62149-.3831.0799-.0634.15158-.14607.18741-.23564-.0372.30317-.33899.58705-.62425.678-.14607.04-.30317.0524-.44648.10059.24115-.20808.22875-.52917.38998-.77308.051-.0689.0937-.14194.15296-.2067-.0978.19705-.0551.45199-.16812.64354" fill="#478ac7"/><path d="m162.49781 200.48023c.0854.21084.11851.44786.31557.60633-.2136-.0703-.46302-.051-.65181-.1819-.20533-.12678-.38999-.34037-.4272-.57602.14056.32109.4961.34727.7345.54295.0441.0386.0896.0717.13918.0951l.003-.003c-.0537-.0496-.11851-.10611-.15571-.1695-.13919-.1943-.0909-.46577-.19569-.67524.0951.11438.18191.23289.2384.36105" fill="#478ac7"/><path d="m165.03202 201.10585c-.0524.0345-.11714.04-.17226.0648.0772.003.14745-.0248.22325-.0331.28249-.0441.60495.001.80201-.2384-.073.16674-.25631.3073-.42443.36656-.28663.10748-.5774-.0248-.85301-.0689l-.0524-.008v-.001c.13091-.0289.25907-.0689.3638-.16399.15572-.14883.29214-.30041.4644-.41754-.12816.16261-.14056.3955-.3514.50022" fill="#478ac7"/><path d="m163.05591 201.02731c.10887.0965.24116.14056.37896.1695-.0331.011-.0758.008-.11162.0179-.24942.0606-.52641.16123-.78962.0717-.17225-.0538-.34864-.19017-.43545-.35967.22737.25907.59944.17225.90261.24116.0427.006.0813.0221.12678.0152-.0358-.0234-.0854-.0207-.1254-.04-.23703-.0841-.27285-.34175-.40101-.51538.16398.11024.30317.25769.45475.39963" fill="#478ac7"/><path d="m164.91213 201.37871c.18466.0675.42306.0482.58153-.0634-.0813.10059-.19293.17363-.3073.21497-.25632.0965-.52366-.004-.72347-.15572-.0813-.0524-.15296-.12677-.25907-.11989-.0372 0-.0744.001-.10611.011.1943.0896.37483.21497.54019.37483-.0275.0317-.0634.062-.0978.0882-.15847-.17088-.33624-.33624-.5333-.4327-.0386.006-.0744.0289-.11024.0469-.15986.10198-.31971.23289-.43822.39274l-.10335-.0854c.16398-.16536.34588-.29489.54432-.38722-.19568-.0606-.32246.10197-.46991.18465-.17363.12127-.42168.17777-.62976.0951-.11163-.0427-.22049-.10611-.30179-.20671.16398.11162.40927.12402.59531.051.2508-.10886.50987-.24667.81166-.18052.0469.001.0923.0482.13781.008.22324-.0593.4768-.0193.66973.0841zm0 0" fill="#478ac7"/><path d="m157.21027 209.72273h1.94166c-.0345 1.55994-.89435 2.34404-2.05328 2.34404-1.24712 0-2.04638-1.05144-2.04638-2.18143s.79926-2.18144 2.04638-2.18144c1.38217 0 1.76251.86128 1.91823 1.30914l-.87781.0551c-.1502-.36931-.452-.6146-1.04042-.6146-.66008 0-1.17409.53605-1.17409 1.43178 0 .75516.47543 1.43178 1.23059 1.43178.67662 0 .98943-.48093 1.06247-.87781h-1.00735zm0 0" fill="#478ac7"/><path d="m167.44496 207.79348h.83647v3.4134h1.61231v.78134h-2.44878zm0 0" fill="#478ac7"/><path d="m172.24192 208.89728c0-.28938-.27837-.46853-.61323-.46853-.41893 0-.66973.18466-.66973.46302 0 .29077.27974.42995.48507.49747l.77032.2453c.55811.17776.95361.5016.95361 1.14928 0 .51263-.36794 1.28295-1.52825 1.28295-1.45658 0-1.59025-.94258-1.59025-1.3174l.83647-.0165c0 .44648.35277.62012.75929.62012.28388 0 .68627-.14056.68627-.4644 0-.22186-.0951-.339-.5085-.49058l-.91501-.32936c-.46165-.16674-.78549-.57463-.78549-1.04868 0-.53468.36794-1.305 1.45521-1.305 1.29536 0 1.50068.85989 1.50068 1.16582zm0 0" fill="#478ac7"/><path d="m160.49001 209.36857c.051-.0868.11299-.16674.18465-.2384l-.60771-.66697c-.15297.14608-.28388.31557-.38723.50298zm0 0" fill="#5cb845"/><path d="m161.98104 208.89728c.0923.0427.17777.0965.25494.15986l.61047-.66559c-.16123-.13919-.34313-.25356-.54157-.33762zm0 0" fill="#e3b830"/><path d="m163.37837 209.09848-.8089.40376c.0386.0896.0661.18466.0813.28526l.89986-.0854c-.0276-.21222-.0854-.41617-.17226-.60358" fill="#c21e2e"/><path d="m162.51159 209.38511.8089-.40377c-.10059-.18603-.22875-.35415-.37758-.5016l-.61047.66559c.0689.0717.12954.15158.17915.23978" fill="#4a9c45"/><path d="m160.32877 209.95975c0-.0179 0-.0372.001-.0551l-.89985-.0799c-.003.0441-.004.0896-.004.13505 0 .17226.0207.34038.0606.50023l.86954-.24942c-.0179-.0813-.0275-.16537-.0275-.25081" fill="#3f7f45"/><path d="m162.39859 210.69838c-.0634.0786-.1378.14745-.21911.20671l.47405.76894c.17638-.11851.33348-.26458.46577-.43132zm0 0" fill="#fac217"/><path d="m162.66317 209.95975c0 .0841-.01.16812-.0262.24805l.86817.24942c.04-.15985.0606-.32659.0606-.49747 0-.0427-.001-.0854-.004-.12816l-.89986.0854c.001.0138.001.0276.001.0427" fill="#f03f28"/><path d="m160.60852 210.71629-.71934.54708c.13367.16399.29215.30731.46991.42444l.47405-.76756c-.0827-.0579-.15848-.12679-.22462-.20396" fill="#fa9c23"/><path d="m160.34393 209.77509c.0152-.10197.0455-.19843.0854-.28938l-.80753-.40377c-.0896.19017-.15158.39688-.17914.61185zm0 0" fill="#1794d4"/><path d="m162.54328 211.74431-.47404-.76894c-.0868.0496-.17915.0868-.27699.113l.16674.88883c.20809-.0482.40515-.12816.58429-.23289" fill="#a11945"/><path d="m162.60116 210.3332c-.0303.0923-.073.17915-.1254.26045l.72071.54432c.11713-.16812.21084-.35553.27285-.55534zm0 0" fill="#28bde3"/><path d="m161.66409 211.11455c-.0551.008-.11162.0124-.16812.0124-.0469 0-.0909-.003-.13642-.008l-.16675.88884c.0992.0138.19982.022.30317.022.11438 0 .226-.01.33487-.0276zm0 0" fill="#f06828"/><path d="m161.57039 208.79393c.10059.007.19706.0262.28939.0565l.32384-.84336c-.19293-.0689-.39826-.10886-.61323-.11713zm0 0" fill="#e6233a"/><path d="m161.23139 211.09663c-.1006-.0234-.19706-.0606-.28663-.10886l-.47543.76894c.18328.10474.3831.18191.59532.22738zm0 0" fill="#de1768"/><path d="m161.14457 208.8463c.0951-.0303.19293-.0482.2949-.0524v-.90399c-.21635.006-.42581.0455-.62149.113zm0 0" fill="#174a68"/><path d="m160.52859 210.61157c-.0565-.0841-.10335-.17639-.1378-.27561l-.86817.24942c.0662.20671.16399.39963.28663.57327zm0 0" fill="#c7992e"/><path d="m160.7725 209.04335c.0772-.0592.15985-.11024.2508-.15158l-.32659-.84198c-.1943.0813-.37345.19293-.5333.3266zm0 0" fill="#02689c"/><path d="m165.30349 208.7581h-.011l-.53744 1.65089h1.09141zm.76895 2.34129h-1.55443l-.27698.88745h-.9164l1.54892-4.25262h.89434l1.52687 4.25262h-.93431zm0 0" fill="#478ac7"/></g></svg>